<?xml version="1.0" encoding="utf-8"?>
<svg viewBox="6.08 7.432 121.893 32.433" width="121.893" height="32.433" xmlns="http://www.w3.org/2000/svg">
  <g style="" transform="matrix(0.576312, 0, 0, 0.576312, -8.753265, 1.952659)">
    <path class="st0" d="M 80.382 60.797 L 73.186 60.797 L 67.062 54.673 L 63.442 51.052 C 64.795 50.019 66.014 48.819 67.067 47.486 C 69.802 44.023 71.435 39.656 71.435 34.914 C 71.435 23.719 62.325 14.609 51.13 14.609 C 39.935 14.609 30.825 23.719 30.825 34.914 C 30.825 45.248 38.587 53.807 48.587 55.061 L 48.587 49.921 C 41.401 48.706 35.911 42.44 35.911 34.914 C 35.911 26.522 42.738 19.695 51.13 19.695 C 59.522 19.695 66.349 26.522 66.349 34.914 C 66.349 38.254 65.267 41.348 63.437 43.856 C 62.433 45.233 61.204 46.439 59.802 47.413 L 56.118 43.728 C 57.613 42.877 58.877 41.657 59.772 40.192 C 60.717 38.652 61.258 36.842 61.258 34.909 C 61.258 29.321 56.713 24.776 51.125 24.776 C 45.537 24.776 40.992 29.321 40.992 34.909 C 40.992 39.616 44.219 43.586 48.582 44.717 L 48.582 39.262 C 47.087 38.386 46.083 36.763 46.083 34.904 C 46.083 32.12 48.341 29.857 51.13 29.857 C 53.919 29.857 56.172 32.115 56.172 34.904 C 56.172 36.763 55.168 38.386 53.673 39.262 L 53.673 65.784 L 48.587 65.784 L 48.587 60.172 C 35.773 58.893 25.739 48.047 25.739 34.904 C 25.739 20.9 37.131 9.508 51.135 9.508 C 65.139 9.508 76.526 20.9 76.526 34.904 C 76.526 41.052 74.332 46.694 70.682 51.092 L 80.382 60.797 Z" style="fill: rgb(12, 102, 255);"/>
    <g transform="matrix(0.491883, 0, 0, 0.491883, -114.447426, -208.28801)">
      <path class="st1" d="M452.96,527.69l-12.65-18.89h-10.2v18.89h-12.98v-59.02h26.98c13.91,0,22.26,7.34,22.26,19.48v0.17 c0,9.53-5.14,15.51-12.65,18.3l14.42,21.08H452.96z M453.21,488.82c0-5.57-3.88-8.43-10.2-8.43h-12.9v16.95h13.15 c6.32,0,9.95-3.37,9.95-8.35V488.82z" style=""/>
      <path class="st1" d="M522.01,527.69l-5.4-13.24h-24.96l-5.4,13.24h-13.24l25.3-59.44h11.97l25.3,59.44H522.01z M504.13,483.85 l-7.84,19.14h15.68L504.13,483.85z" style=""/>
      <path class="st1" d="M565.01,504.17v23.53h-12.98v-23.27l-22.68-35.75h15.18l14.08,23.69l14.33-23.69h14.76L565.01,504.17z" style=""/>
      <path class="st1" d="M618.8,527.69h-23.02v-59.02h23.02c18.55,0,31.37,12.73,31.37,29.34v0.17 C650.16,514.79,637.35,527.69,618.8,527.69z M636.59,498.18c0-10.46-7.17-17.79-17.79-17.79h-10.03v35.58h10.03 c10.62,0,17.79-7.17,17.79-17.62V498.18z" style=""/>
      <path class="st1" d="M701.42,527.69l-5.4-13.24h-24.96l-5.4,13.24h-13.24l25.3-59.44h11.97l25.3,59.44H701.42z M683.55,483.85 l-7.84,19.14h15.68L683.55,483.85z" style=""/>
    </g>
  </g>
</svg>